Coordinates
version=1
nRows=21
nColumns=28
inDegrees=yes

Units are S.I. units (second, meters, Newtons, ...)
Angles are in degrees.

endheader
time	pelvis_tilt	pelvis_list	pelvis_rotation	pelvis_tx	pelvis_ty	pelvis_tz	hip_flexion_r	hip_adduction_r	hip_rotation_r	knee_angle_r	ankle_angle_r	subtalar_angle_r	mtp_angle_r	hip_flexion_l	hip_adduction_l	hip_rotation_l	knee_angle_l	socket_flexion	socket_adduction	socket_rotation	socket_tx	socket_ty	socket_tz	foot_flex	lumbar_extension	lumbar_bending	lumbar_rotation
      0.00000000	      1.54853170	     -5.28981410	     -7.31583163	     -0.86664739	      0.99388740	      0.29139699	    -26.75498038	      6.56871017	      0.48965189	     -4.08770337	     13.35470891	     -1.74645779	      4.10110132	     23.24863744	     -7.48976341	      5.93040673	     -2.27742369	      1.70599554	     -1.88821304	      2.65215245	     -0.01339439	     -0.00257485	      0.00783498	     -0.46718798	    -13.01505150	      2.86625309	      9.60204087
      0.00416667	      1.50164971	     -5.31453536	     -7.24039812	     -0.86087913	      0.99313207	      0.29091601	    -26.89448075	      6.57925794	      0.57311691	     -4.30840665	     13.34609857	     -1.80571080	      4.10553431	     23.13584951	     -7.44050092	      5.89511140	     -2.33160111	      1.74758426	     -1.87754996	      2.69110626	     -0.01249751	     -0.00290126	      0.00730064	     -0.54957295	    -12.84659890	      2.86908305	      9.61213713
      0.00833333	      1.38122321	     -5.26918499	     -8.20667381	     -0.85487904	      0.99323188	      0.29218728	    -27.01206910	      6.18434812	      2.66808342	     -4.47922709	     12.48167732	     -4.85366977	      4.38017913	     23.16018923	     -7.75561002	      2.70945817	     -2.50473245	      1.77448239	     -1.94749036	      5.16305889	     -0.00785425	     -0.00297712	      0.00701147	     -1.19784797	    -12.65970263	      2.56650010	     10.94584537
      0.01250000	      1.34077119	     -5.31041394	     -8.11616678	     -0.84865526	      0.99244432	      0.29160366	    -27.16186019	      6.20479517	      2.71705767	     -4.72334888	     12.43735162	     -4.86693952	      4.37876346	     23.02372623	     -7.70070858	      2.71864437	     -2.57019961	      1.82719565	     -1.94286866	      5.21005921	     -0.00695524	     -0.00339746	      0.00655677	     -1.24777324	    -12.49697428	      2.60293583	     10.93578507
      0.01666667	      1.29969753	     -5.47815957	     -8.11039641	     -0.84247496	      0.99186355	      0.29093745	    -27.02727300	      6.31385935	      2.52611349	     -5.54299818	     12.15695533	     -5.11776850	      4.35848573	     22.57875875	     -7.66116938	      2.67226392	     -2.44467340	      1.72243918	     -2.14464396	      5.59398033	     -0.00801826	     -0.00398348	      0.00831176	     -1.75178845	    -12.43853398	      2.85565559	     10.84018576
      0.02083333	      1.25996434	     -5.50610346	     -7.99741890	     -0.83596603	      0.99110217	      0.29031518	    -27.16538515	      6.33267745	      2.59424373	     -5.82342998	     12.09994987	     -5.12738929	      4.35825032	     22.44002750	     -7.59686812	      2.64859548	     -2.52319301	      1.78746892	     -2.12268408	      5.61273055	     -0.00714507	     -0.00445530	      0.00761373	     -1.82573042	    -12.27928161	      2.87004701	     10.83220481
      0.02500000	      1.26934239	     -5.56104994	     -8.18185736	     -0.82978584	      0.99078134	      0.28998923	    -26.87282102	      6.24421814	      2.39265302	     -7.02536641	     11.70354018	     -5.47114786	      4.45314907	     21.94582605	     -7.54618099	      2.22607930	     -2.42375092	      1.69773477	     -2.27085211	      6.01407745	     -0.00783419	     -0.00487202	      0.00887333	     -2.30444204	    -12.31997036	      2.92017857	     10.74056269
      0.02916667	      1.22945676	     -5.58602830	     -8.07226726	     -0.82296735	      0.99004846	      0.28936008	    -27.02087499	      6.25719253	      2.47382810	     -7.30036290	     11.64920407	     -5.47094287	      4.45749540	     21.78419237	     -7.47135382	      2.23021366	     -2.50414221	      1.76337356	     -2.25796444	      6.07215887	     -0.00689355	     -0.00551210	      0.00833955	     -2.40070607	    -12.12406254	      2.94526081	     10.74480863
      0.03333333	      1.16583013	     -5.67059686	     -8.15574253	     -0.81632564	      0.98960422	      0.28876345	    -26.75672285	      6.23613446	      2.29077919	     -8.32380894	     11.22154759	     -5.72671901	      4.49918861	     21.27577887	     -7.35038019	      1.94967527	     -2.34543758	      1.63398716	     -2.49543826	      6.46920097	     -0.00821702	     -0.00622895	      0.01035970	     -3.06004478	    -12.02737442	      3.08840383	     10.74520693
      0.03750000	      1.13952956	     -5.67939366	     -8.04535717	     -0.80936415	      0.98895753	      0.28817274	    -26.89000501	      6.23714679	      2.39210758	     -8.64409502	     11.14909473	     -5.72677434	      4.50337646	     21.10296305	     -7.27807109	      1.97203355	     -2.44294786	      1.71227449	     -2.46176781	      6.54437595	     -0.00719295	     -0.00695692	      0.00968859	     -3.12628025	    -11.82577314	      3.07488496	     10.74441073
      0.04166667	      1.08307188	     -5.69099283	     -8.19694803	     -0.80276435	      0.98867675	      0.28776743	    -26.48916126	      6.12245650	      2.18464063	     -9.90938619	     10.57962554	     -6.05238872	      4.55710079	     20.57155644	     -7.15227622	      1.60902587	     -2.29318863	      1.58899599	     -2.65508026	      6.93346570	     -0.00864170	     -0.00758476	      0.01132375	     -3.67629951	    -11.75597304	      3.09214045	     10.73101636
      0.04583333	      1.12708566	     -5.14282378	     -8.66173146	     -0.79528659	      0.98877512	      0.28800688	    -26.35876835	      5.29542559	      2.21993555	    -10.75378341	     10.15823396	     -6.20076302	      5.98529564	     20.11068101	     -6.45305514	     -0.25298717	     -2.30006837	      1.56452220	     -3.01685855	      8.27824369	     -0.00722373	     -0.00750923	      0.01359993	     -3.90364520	    -11.51297997	      2.29694479	     11.34948622
      0.05000000	      1.18839437	     -5.23692393	     -8.57580527	     -0.78867163	      0.98849182	      0.28733030	    -26.26201673	      5.33923033	      2.05184269	    -11.65447006	      9.64149604	     -6.29172063	      6.05816613	     19.80122860	     -6.47100582	     -0.31021688	     -2.36989065	      1.60970488	     -2.97446177	      8.50924390	     -0.00663331	     -0.00838915	      0.01308750	     -4.18491856	    -11.54711704	      2.40292821	     11.23066579
      0.05416667	      1.19644586	     -5.24349515	     -8.53317624	     -0.78188799	      0.98822879	      0.28682386	    -26.10735952	      5.30042358	      1.95399382	    -12.54165805	      9.18948731	     -6.44504244	      6.15798965	     19.48186928	     -6.40853086	     -0.40958320	     -2.40942913	      1.63599016	     -2.96603604	      8.71742091	     -0.00644341	     -0.00921538	      0.01288136	     -4.42548035	    -11.46476191	      2.39828218	     11.12001174
      0.05833333	      1.19030642	     -5.19446037	     -8.51326787	     -0.77511002	      0.98804334	      0.28635773	    -25.88892052	      5.20226257	      1.86328554	    -13.49724738	      8.68631504	     -6.64845211	      6.26840051	     19.16584704	     -6.29268595	     -0.54832608	     -2.44944415	      1.66665836	     -2.96209221	      8.90130645	     -0.00640025	     -0.00997589	      0.01275168	     -4.65036911	    -11.36066505	      2.32014624	     11.02074060
      0.06250000	      1.18055639	     -5.09718584	     -8.50632073	     -0.76831317	      0.98795324	      0.28593768	    -25.62684690	      5.05385798	      1.76527974	    -14.49744023	      8.13854971	     -6.88933625	      6.39740448	     18.86045835	     -6.13232500	     -0.71713663	     -2.49931749	      1.70786257	     -2.96135535	      9.07153764	     -0.00630859	     -0.01066445	      0.01263586	     -4.84950129	    -11.24017511	      2.18100429	     10.93037532
      0.06666667	      1.17812266	     -4.97728101	     -8.49075309	     -0.76153584	      0.98793457	      0.28551996	    -25.33778985	      4.88496541	      1.65811332	    -15.53849051	      7.54417910	     -7.14238049	      6.53482016	     18.56861224	     -5.95298098	     -0.88536717	     -2.56641712	      1.76281446	     -2.94286024	      9.23812198	     -0.00613896	     -0.01132906	      0.01247567	     -5.02394179	    -11.12220462	      2.00916903	     10.84475605
      0.07083333	      1.25717789	     -4.30113467	     -8.40613792	     -0.75430115	      0.98810004	      0.28462090	    -25.00933843	      4.04874617	      0.73689463	    -16.60740128	      5.99644167	     -7.10332297	     11.64220881	     18.81632798	     -4.87307655	     -2.65461479	     -3.00144799	      2.08182750	     -3.33902024	     11.02539476	     -0.00032611	     -0.01075961	      0.01451506	     -5.13803087	    -10.93783169	      1.21102679	     10.91940147
      0.07500000	      1.29183047	     -4.21651106	     -8.42955664	     -0.74767132	      0.98822727	      0.28450982	    -24.70236783	      3.91251436	      0.73900947	    -17.73778802	      5.38360050	     -7.29261512	     11.61877662	     18.43635291	     -4.89757383	     -2.67728296	     -3.05569419	      2.10304415	     -3.13231760	     10.97341438	     -0.00086266	     -0.01166186	      0.01299552	     -5.29698723	    -10.87706986	      1.04577313	     10.68726141
      0.07916667	      1.31468615	     -4.09913395	     -8.40639734	     -0.74102013	      0.98843122	      0.28420232	    -24.33363877	      3.75575260	      0.66501802	    -18.92020852	      4.70666223	     -7.57671366	     11.60242406	     18.09087980	     -4.78151880	     -2.71440308	     -3.12685339	      2.16099037	     -3.02878525	     10.93784530	     -0.00126631	     -0.01236364	      0.01233200	     -5.39373074	    -10.80695021	      0.87240623	     10.53059170
      0.08333333	      1.33956936	     -3.93104626	     -8.35442085	     -0.73445126	      0.98871396	      0.28383201	    -23.92583917	      3.55579453	      0.56358990	    -20.14640306	      3.95870692	     -7.89117094	     11.58597468	     17.79890463	     -4.60309944	     -2.74948760	     -3.22570061	      2.24059589	     -2.91768343	     10.92743709	     -0.00136324	     -0.01291889	      0.01167044	     -5.47874204	    -10.73740501	      0.62418318	     10.39167671
